<svg width="52" height="48" viewBox="0 0 52 48" fill="none" xmlns="http://www.w3.org/2000/svg">
<path fill-rule="evenodd" clip-rule="evenodd" d="M4.41659 0.666672C2.16142 0.666672 0.333252 2.49484 0.333252 4.75V12.9167C0.333252 15.1718 2.16142 17 4.41658 17H47.5833C49.8384 17 51.6666 15.1718 51.6666 12.9167V4.75C51.6666 2.49484 49.8384 0.666672 47.5833 0.666672H4.41659ZM47.5833 4.16667H4.41659C4.09442 4.16667 3.83325 4.42784 3.83325 4.75V12.9167C3.83325 13.2388 4.09442 13.5 4.41658 13.5H47.5833C47.9054 13.5 48.1666 13.2388 48.1666 12.9167V4.75C48.1666 4.42784 47.9054 4.16667 47.5833 4.16667Z" fill="#BDBDBD"/>
<path d="M4.41659 19.3333C5.38308 19.3333 6.16659 20.1168 6.16659 21.0833V43.25C6.16659 43.5722 6.42775 43.8333 6.74992 43.8333H45.2499C45.5721 43.8333 45.8333 43.5722 45.8333 43.25V21.0833C45.8333 20.1168 46.6168 19.3333 47.5833 19.3333C48.5498 19.3333 49.3333 20.1168 49.3333 21.0833V43.25C49.3333 45.5052 47.5051 47.3333 45.2499 47.3333H6.74992C4.49476 47.3333 2.66659 45.5052 2.66659 43.25V21.0833C2.66659 20.1168 3.45009 19.3333 4.41659 19.3333Z" fill="#BDBDBD"/>
<path d="M20.7499 22.8333C19.7834 22.8333 18.9999 23.6168 18.9999 24.5833C18.9999 25.5498 19.7834 26.3333 20.7499 26.3333H31.2499C32.2164 26.3333 32.9999 25.5498 32.9999 24.5833C32.9999 23.6168 32.2164 22.8333 31.2499 22.8333H20.7499Z" fill="#BDBDBD"/>
</svg>
