<svg width="45" height="25" viewBox="0 0 45 25" fill="none" xmlns="http://www.w3.org/2000/svg">
<path fill-rule="evenodd" clip-rule="evenodd" d="M22.4858 21.7812C20.1707 23.6235 17.1677 24.7357 13.8863 24.7357C6.5643 24.7357 0.628662 19.1984 0.628662 12.3678C0.628662 5.53727 6.5643 0 13.8863 0C17.1677 0 20.1707 1.11218 22.4858 2.95451C24.8009 1.11218 27.8039 0 31.0853 0C38.4073 0 44.3429 5.53727 44.3429 12.3678C44.3429 19.1984 38.4073 24.7357 31.0853 24.7357C27.8039 24.7357 24.8009 23.6235 22.4858 21.7812Z" fill="#ED0006"/>
<path fill-rule="evenodd" clip-rule="evenodd" d="M22.4858 21.7812C25.3364 19.5127 27.1439 16.1372 27.1439 12.3678C27.1439 8.59851 25.3364 5.223 22.4858 2.95451C24.8009 1.11218 27.8039 0 31.0854 0C38.4073 0 44.343 5.53727 44.343 12.3678C44.343 19.1984 38.4073 24.7357 31.0854 24.7357C27.8039 24.7357 24.8009 23.6235 22.4858 21.7812Z" fill="#F9A000"/>
<path fill-rule="evenodd" clip-rule="evenodd" d="M22.4859 21.7812C25.3364 19.5127 27.1439 16.1372 27.1439 12.3679C27.1439 8.59856 25.3364 5.22308 22.4859 2.95459C19.6354 5.22308 17.8279 8.59856 17.8279 12.3679C17.8279 16.1372 19.6354 19.5127 22.4859 21.7812Z" fill="#FF5E00"/>
</svg>
