<svg width="54" height="46" viewBox="0 0 54 46" fill="none" xmlns="http://www.w3.org/2000/svg">
<path fill-rule="evenodd" clip-rule="evenodd" d="M4.25008 4.33333C3.92791 4.33333 3.66675 4.5945 3.66675 4.91666V41.0833C3.66675 41.4055 3.92791 41.6667 4.25008 41.6667H11.6655L31.6659 20.6136C33.2473 18.9489 35.89 18.9151 37.5136 20.5387L50.3334 33.3585V4.91666C50.3334 4.5945 50.0722 4.33333 49.7501 4.33333H4.25008ZM12.4075 45.1667H12.4254H49.7501C52.0052 45.1667 53.8334 43.3385 53.8334 41.0833V37.5878V37.5789V4.91666C53.8334 2.6615 52.0052 0.833328 49.7501 0.833328H4.25008C1.99492 0.833328 0.166748 2.6615 0.166748 4.91666V41.0833C0.166748 43.3385 1.99492 45.1667 4.25008 45.1667H12.4075ZM50.3334 41.0833V38.3082L35.0387 23.0136C34.8068 22.7816 34.4293 22.7864 34.2034 23.0243L16.4931 41.6667H49.7501C50.0722 41.6667 50.3334 41.4055 50.3334 41.0833ZM20.0001 16.5833C20.0001 18.8385 18.1719 20.6667 15.9167 20.6667C13.6616 20.6667 11.8334 18.8385 11.8334 16.5833C11.8334 14.3282 13.6616 12.5 15.9167 12.5C18.1719 12.5 20.0001 14.3282 20.0001 16.5833ZM23.5001 16.5833C23.5001 20.7715 20.1049 24.1667 15.9167 24.1667C11.7286 24.1667 8.33341 20.7715 8.33341 16.5833C8.33341 12.3952 11.7286 8.99999 15.9167 8.99999C20.1049 8.99999 23.5001 12.3952 23.5001 16.5833Z" fill="#BDBDBD"/>
</svg>
