<svg width="54" height="54" viewBox="0 0 54 54" fill="none" xmlns="http://www.w3.org/2000/svg">
<path fill-rule="evenodd" clip-rule="evenodd" d="M46.4169 0.75C40.0223 0.75 33.8692 3.19223 29.2152 7.5775L26.1713 10.4456C24.914 11.6303 23.7138 12.8722 22.5743 14.167H10.8211C9.38679 14.167 8.05764 14.9195 7.31968 16.1494L0.99939 26.6833C0.708198 27.1686 0.669697 27.7648 0.896048 28.2835C1.1224 28.8022 1.58565 29.1795 2.13948 29.2961L12.8068 31.5418C12.897 31.6567 12.9969 31.7661 13.1062 31.8687L17.7635 36.2393L22.1314 40.8939C22.2341 41.0033 22.3435 41.1032 22.4585 41.1935L24.7042 51.8608C24.8208 52.4146 25.1981 52.8779 25.7168 53.1042C26.2355 53.3306 26.8317 53.2921 27.317 53.0009L37.8509 46.6806C39.0808 45.9427 39.8333 44.6135 39.8333 43.1792V31.4251C41.1287 30.285 42.3711 29.0841 43.5562 27.8261L46.4217 24.7843C50.8076 20.1287 53.2492 13.9734 53.2474 7.57724L53.2466 4.83214C53.2459 2.57744 51.4179 0.75 49.1632 0.75H46.4169ZM36.3333 34.2618C35.5571 34.8402 34.7655 35.3986 33.9591 35.9361L26.0398 41.2156L27.623 48.7357L36.0501 43.6794C36.2258 43.574 36.3333 43.3841 36.3333 43.1792V34.2618ZM12.7844 27.9604L18.0656 20.0386C18.6026 19.2331 19.1603 18.4423 19.738 17.667H10.8211C10.6162 17.667 10.4263 17.7745 10.3209 17.9502L5.26464 26.3773L12.7844 27.9604ZM31.6154 10.1248C35.62 6.35145 40.9146 4.25 46.4169 4.25H49.1632C49.4853 4.25 49.7465 4.51106 49.7466 4.83316L49.7474 7.57827C49.749 13.0819 47.648 18.3783 43.8741 22.3844L41.0086 25.4261C38.3094 28.2914 35.293 30.8404 32.0176 33.024L24.3456 38.1387L20.2777 33.8038C20.2523 33.7768 20.2261 33.7505 20.1991 33.7252L15.8615 29.6545L20.9778 21.9801C23.1603 18.7063 25.7079 15.6912 28.5715 12.9929L31.6154 10.1248ZM39.8333 17.6667C39.8333 19.5997 38.2663 21.1667 36.3333 21.1667C34.4003 21.1667 32.8333 19.5997 32.8333 17.6667C32.8333 15.7337 34.4003 14.1667 36.3333 14.1667C38.2663 14.1667 39.8333 15.7337 39.8333 17.6667ZM14.1666 48C16.2662 45.9004 16.2663 41.9331 14.1667 39.8334C12.0671 37.7338 8.09958 37.7338 5.99995 39.8334C3.17943 42.6539 2.62831 48.9363 2.52372 50.9009C2.5062 51.23 2.77002 51.4938 3.09907 51.4762C5.0638 51.3715 11.3466 50.8201 14.1666 48Z" fill="#BDBDBD"/>
</svg>
