<svg width="48" height="53" viewBox="0 0 48 53" fill="none" xmlns="http://www.w3.org/2000/svg">
<path d="M34.5707 21.8208C35.2541 21.1374 35.2541 20.0293 34.5707 19.3459C33.8873 18.6625 32.7793 18.6625 32.0959 19.3459L21.6666 29.7751L17.0707 25.1792C16.3873 24.4958 15.2793 24.4958 14.5959 25.1792C13.9124 25.8627 13.9124 26.9707 14.5959 27.6541L20.4292 33.4874C21.1126 34.1709 22.2206 34.1709 22.9041 33.4874L34.5707 21.8208Z" fill="#E0E0E0"/>
<path fill-rule="evenodd" clip-rule="evenodd" d="M25.2597 0.485474C24.4409 0.21991 23.5591 0.219909 22.7402 0.485474L3.49023 6.72872C1.80873 7.27407 0.666626 8.83861 0.666626 10.6105V22.3333C0.666638 36.7751 9.46515 47.3114 22.6023 52.2684C23.5021 52.608 24.4978 52.608 25.3976 52.2684C38.5348 47.3114 47.3333 36.7751 47.3333 22.3333V10.6112C47.3333 8.83985 46.1917 7.27425 44.5097 6.72872L25.2597 0.485474ZM23.82 3.81475C23.937 3.77682 24.0629 3.77682 24.1799 3.81475L43.4299 10.058C43.6719 10.1365 43.8333 10.3598 43.8333 10.6112V22.3333C43.8333 35.0765 36.1782 44.4597 24.162 48.9938C24.0585 49.0328 23.9414 49.0328 23.8379 48.9938C11.8217 44.4597 4.16664 35.0765 4.16663 22.3333L4.16663 10.6105C4.16663 10.3598 4.32752 10.1366 4.57 10.058L23.82 3.81475Z" fill="#E0E0E0"/>
</svg>
